<svg xmlns="http://www.w3.org/2000/svg" viewBox="0 0 94.06 78.59"><defs><style>.cls-1{fill:#fff;}</style></defs><g id="Layer_2" data-name="Layer 2"><path class="cls-1" d="M287.62,105a39.19,39.19,0,0,0-30.89,15h8.58a33,33,0,1,1-1.52,47h-8.18a39.29,39.29,0,1,0,32-62.06Z" transform="translate(-232.85 -104.97)"/></g><g id="Layer_3" data-name="Layer 3"><path class="cls-1" d="M285.88,147.15H244.5s-4.32-.8-5.21-6.36h41.3S286.15,141.94,285.88,147.15Z" transform="translate(-232.85 -104.97)"/><path class="cls-1" d="M246.35,154.56h52.33s2.73-18.44-16.06-22.59H238.68s-4.15,0-5.83-6.26h49.41s23.65,1.67,22.68,28.85c0,4.06,0,6.53,0,6.53H252.18S247,160.74,246.35,154.56Z" transform="translate(-232.85 -104.97)"/></g></svg>